Coordinates
version=1
nRows=13
nColumns=36
inDegrees=yes

Units are S.I. units (second, meters, Newtons, ...)
If the header above contains a line with 'inDegrees', this indicates whether rotational values are in degrees (yes) or radians (no).

endheader
time	pelvis_tilt	pelvis_list	pelvis_rotation	pelvis_tx	pelvis_ty	pelvis_tz	hip_flexion_r	hip_adduction_r	hip_rotation_r	knee_angle_r	knee_angle_r_beta	ankle_angle_r	subtalar_angle_r	mtp_angle_r	hip_flexion_l	hip_adduction_l	hip_rotation_l	knee_angle_l	knee_angle_l_beta	ankle_angle_l	subtalar_angle_l	mtp_angle_l	lumbar_extension	lumbar_bending	lumbar_rotation	arm_flex_r	arm_add_r	arm_rot_r	elbow_flex_r	pro_sup_r	arm_flex_l	arm_add_l	arm_rot_l	elbow_flex_l	pro_sup_l
      0.00000000	      2.66754792	     -1.48245125	      1.81422067	      0.73923822	      0.99112522	      0.47842547	     -6.21693955	     -3.28371419	     -1.57250379	      0.14942491	      0.00260796	      3.99825064	     -7.19113478	     -6.63181637	     -4.05795095	     -7.81751376	      3.63121616	      0.31464754	      0.00549164	      6.32338786	     -6.73395712	     -6.63181637	     -4.36390252	      0.69026877	     -3.71936143	     32.45364776	      3.05133793	     45.41507283	    110.01635553	     79.85289557	     33.59695999	      6.21378670	     76.03766287	    120.08651467	     86.24492640
      0.01666670	      3.13632262	     -1.08340032	     -0.20683182	      0.74312405	      0.99027932	      0.47975552	     -6.42177433	     -4.23983426	      0.26706650	      0.22268929	      0.00388666	      5.64890395	     -6.49425704	     -6.92380088	     -5.31524772	     -7.51130459	      4.44796849	      0.39858098	      0.00695655	      5.59472400	     -8.32322428	     -6.92380088	     -4.77702084	      0.67282878	     -2.05704229	     34.31545018	     -1.04243374	     52.37057458	    116.05597392	     88.95361418	     33.71556829	      4.91025134	     71.30979405	    125.48646848	     99.24003070
      0.03333330	      2.69682859	     -1.21619139	     -1.04501265	      0.74404900	      0.99282517	      0.48034516	     -5.84621859	     -4.44719588	      1.58473433	      0.27944388	      0.00487722	      5.92860713	     -6.60104748	     -7.15008228	     -5.09714793	     -7.84285370	      4.66191616	      0.36168808	      0.00631265	      5.02725661	     -8.34755648	     -7.15008228	     -3.40578595	      1.20800481	     -3.77164964	     34.76578405	      0.64165750	     52.04107255	    113.75854027	     92.02626294	     33.08921183	      3.71310542	     68.92751217	    126.92634646	    103.78575312
      0.05000000	      2.73001105	     -1.19652068	     -0.86988537	      0.74342481	      0.99339118	      0.48063902	     -5.98653390	     -4.75690805	      1.90682566	      0.32825835	      0.00572919	      6.74653733	     -5.93497408	     -7.22201744	     -5.04729718	     -8.07841739	      4.29663452	      0.38989070	      0.00680488	      5.11983364	     -7.38123166	     -7.22201744	     -2.81872694	      1.15509100	     -3.88597768	     34.42779595	      0.99429122	     50.46797971	    112.73333368	     88.80598934	     32.43563520	      3.36539856	     68.05225846	    127.37189941	     99.31519170
      0.06666670	      3.09662833	     -1.11125220	     -0.75618199	      0.74268753	      0.99301158	      0.48033799	     -6.42793996	     -5.00164854	      1.61611005	      0.42981802	      0.00750174	      7.58612290	     -4.68918066	     -7.29653574	     -5.35024347	     -8.13383809	      4.31990759	      0.45976396	      0.00802439	      5.36752168	     -6.84793022	     -7.29653574	     -2.89094027	      1.24099252	     -4.60270399	     34.87520300	      1.81650325	     49.97856129	    110.57293641	     93.39279650	     31.86246107	      2.92954266	     66.07998159	    127.54271103	    101.84012323
      0.08333330	      3.32004139	     -0.93983353	     -0.81003226	      0.74422967	      0.98725736	      0.48020690	     -6.65762820	     -5.33654770	      1.96265904	      0.63335235	      0.01105408	      7.86140476	     -4.87932697	     -7.37544181	     -5.57212544	     -8.03596413	      4.01242655	      0.58284374	      0.01017254	      5.54294458	     -6.45064440	     -7.37544181	     -2.80690152	      1.11147328	     -4.37222692	     34.84998713	      2.19401787	     48.67768962	    109.89413020	     94.36152749	     31.81864065	      3.10901401	     65.06635205	    127.85210877	    100.54546501
      0.10000000	      3.41513460	     -0.68417669	     -0.99015237	      0.74428424	      0.98529150	      0.48018222	     -6.70596719	     -5.72173779	      2.08261053	      0.89099630	      0.01555082	      8.22266079	     -4.81837447	     -7.48755836	     -5.64235568	     -7.79973618	      3.68675604	      0.77032833	      0.01344477	      5.70646224	     -6.21822441	     -7.48755836	     -2.85161905	      0.87247869	     -4.89989347	     35.35338435	      3.00634885	     48.38369523	    108.74585783	     93.59461409	     33.00158987	      3.40482153	     64.43285340	    128.21654243	     98.56487009
      0.11666670	      3.21091823	     -0.43564554	     -1.12782707	      0.73903495	      0.98364552	      0.47843830	     -6.34596839	     -6.06859115	      2.32975441	      1.20401948	      0.02101410	      8.55111305	     -5.00436266	     -7.48767233	     -5.23930079	     -7.53224787	      3.40382188	      1.05141842	      0.01835071	      5.81979901	     -6.11157328	     -7.48767233	     -2.88376823	      0.62981404	     -5.32891492	     36.02470115	      3.64583652	     48.49234247	    108.76497981	     93.59492299	     34.79500390	      3.67353574	     63.76700585	    128.16525096	     98.46993059
      0.13333330	      3.16804257	     -0.25338576	     -1.16771755	      0.74333362	      0.98722702	      0.48095204	     -6.29738030	     -6.26088830	      2.55033233	      1.33779517	      0.02334893	      8.70768319	     -5.38466459	     -7.48798813	     -5.11841912	     -7.33577047	      2.96354366	      1.19536688	      0.02086309	      5.92568912	     -5.63701403	     -7.48798813	     -2.74508906	      0.39235916	     -5.80208469	     35.65454387	      4.35458868	     50.29494967	    110.55800418	     93.53948367	     34.60782904	      3.31057790	     62.95763620	    127.70116977	     98.14033131
      0.15000000	      3.00693970	     -0.13340048	     -1.31264415	      0.74374120	      0.98653382	      0.48117894	     -6.04533581	     -6.37220705	      2.83161657	      1.56190010	      0.02726030	      8.85626943	     -5.70342880	     -7.49736713	     -4.86056510	     -7.19857065	      2.56968980	      1.39186405	      0.02429261	      5.92691167	     -5.29528723	     -7.49736713	     -2.21452230	      0.16996621	     -5.64278204	     34.87505581	      5.22240219	     54.92444724	    114.76551037	     91.79776849	     33.43384212	      3.11215699	     62.68570966	    127.37413369	     95.98074725
      0.16666670	      2.99868050	     -0.04241336	     -1.39949347	      0.74330289	      0.98679199	      0.48126429	     -5.99826106	     -6.45383642	      2.88328382	      1.71229879	      0.02988525	      9.01307204	     -5.83415618	     -7.49839883	     -4.81042519	     -7.07082965	      2.39289450	      1.51737565	      0.02648320	      5.90259354	     -5.24058979	     -7.49839883	     -2.25451129	      0.01405130	     -4.52720874	     34.82484583	      4.62717893	     54.65708291	    114.54537283	     93.02336943	     32.56747550	      3.10239342	     63.58317087	    128.27401222	     94.79939885
      0.18333330	      3.05112950	     -0.01782771	     -1.44667902	      0.74223377	      0.99113039	      0.48145563	     -5.94781856	     -6.44658885	      2.82325310	      2.00594572	      0.03501036	      9.09973554	     -5.89498699	     -7.49840810	     -4.78442243	     -7.01325553	      2.34667498	      1.67665948	      0.02926323	      5.82037054	     -5.20052706	     -7.49840810	     -2.63258520	     -0.08186934	     -4.11615297	     34.96427162	      3.90381450	     54.07624436	    113.68897701	     92.99504235	     32.10833304	      2.69867699	     63.87850592	    128.47155999	     94.79201714
      0.20000000	      3.08133880	      0.00690977	     -1.61684246	      0.74304227	      0.98659995	      0.48137205	     -5.84606865	     -6.44472774	      2.92127406	      2.28466786	      0.03987498	      9.35120932	     -5.96831834	     -7.49857469	     -4.81020584	     -6.97322426	      1.99976389	      1.77270478	      0.03093954	      5.90119350	     -4.90495977	     -7.49857469	     -2.83192182	     -0.15639129	     -3.93346411	     35.07545304	      3.94569289	     52.07142936	    111.99384525	     91.49612875	     32.94039648	      2.86451691	     64.12227474	    128.45759353	     92.86783589
